SplineFontDB: 3.0
FontName: MEh
FullName: MEh
FamilyName: MEh
Weight: Regular
Copyright: 
Version: 1.6
ItalicAngle: 0
UnderlinePosition: -102
UnderlineWidth: 51
Ascent: 819
Descent: 205
InvalidEm: 0
sfntRevision: 0x0001999a
LayerCount: 2
Layer: 0 0 "+BBcEMAQ0BD0EOAQ5 +BD8EOwQwBD0A" 1
Layer: 1 0 "+BB8ENQRABDUENAQ9BDgEOQAA +BD8EOwQwBD0A" 0
XUID: [1021 536 -600327892 15206]
StyleMap: 0x0000
FSType: 0
OS2Version: 0
OS2_WeightWidthSlopeOnly: 0
OS2_UseTypoMetrics: 1
CreationTime: 1460036087
ModificationTime: 1484504598
PfmFamily: 17
TTFWeight: 400
TTFWidth: 5
LineGap: 92
VLineGap: 92
OS2TypoAscent: 0
OS2TypoAOffset: 1
OS2TypoDescent: 0
OS2TypoDOffset: 1
OS2TypoLinegap: 92
OS2WinAscent: 100
OS2WinAOffset: 1
OS2WinDescent: 100
OS2WinDOffset: 1
HheadAscent: 100
HheadAOffset: 1
HheadDescent: 100
HheadDOffset: 1
OS2Vendor: 'PfEd'
MarkAttachClasses: 1
DEI: 91125
LangName: 1033
Encoding: UnicodeFull
UnicodeInterp: none
NameList: AGL For New Fonts
DisplaySize: -96
AntiAlias: 1
FitToEm: 0
WinInfo: 32 8 5
BeginPrivate: 12
BlueValues 18 [-176 120 715 789]
StdVW 5 [129]
BlueFuzz 1 1
OtherBlues 2 []
StdHW 5 [133]
BlueShift 1 7
StemSnapH 25 [116 123 129 133 157 163]
StemSnapV 21 [125 129 137 161 963]
BlueScale 8 0.039625
ForceBold 5 false
LanguageGroup 1 0
ExpansionFactor 4 0.06
EndPrivate
TeXData: 1 0 0 346030 173015 115343 0 1048576 115343 783286 444596 497025 792723 393216 433062 380633 303038 157286 324010 404750 52429 2506097 1059062 262144
BeginChars: 1114112 68

StartChar: A
Encoding: 65 65 0
Width: 1024
VWidth: 0
Flags: W
HStem: -173 362<447.325 576.506> 425 362<447.325 576.506>
VStem: 32 362<242.325 371.675> 629 363<242.325 371.675>
LayerCount: 2
Fore
SplineSet
512 787 m 0
 777 787 992 572 992 307 c 0
 992 42 777 -173 512 -173 c 0
 247 -173 32 42 32 307 c 0
 32 572 247 787 512 787 c 0
512 425 m 0
 447 425 394 372 394 307 c 0
 394 242 447 189 512 189 c 0
 577 189 629 242 629 307 c 0
 629 372 577 425 512 425 c 0
EndSplineSet
Validated: 1
EndChar

StartChar: E
Encoding: 69 69 1
Width: 1048
VWidth: 0
Flags: W
HStem: -174 123<405 646> 655 133<405 646>
VStem: 43 131<184 420> 880 125<184 420>
LayerCount: 2
Fore
SplineSet
481 788 m 0
 747 788 963 573 963 307 c 0
 963 307 963 307 963 307 c 0
 963 41 747 -174 481 -174 c 0
 481 -174 481 -174 481 -174 c 0
 216 -174 -0 41 -0 307 c 0
 -0 307 -0 307 0 307 c 0
 -0 573 216 788 481 788 c 0
484 655 m 0
 289 655 131 497 131 302 c 0
 131 107 289 -51 484 -51 c 0
 679 -51 837 107 837 302 c 0
 837 497 679 655 484 655 c 0
 484 655 484 655 484 655 c 0
EndSplineSet
Validated: 5
EndChar

StartChar: F
Encoding: 70 70 2
Width: 1024
VWidth: 0
Flags: W
HStem: -174 150<313.05 552.629> 768 20G<471 614>
VStem: 4 155<158.925 201.985 392.893 458.836> 401 161<-23.9897 650.713> 806 157<101.221 440>
LayerCount: 2
Fore
SplineSet
481 788 m 0
 747 788 963 573 963 307 c 0
 963 41 747 -174 481 -174 c 0
 280 -174 73 -17 18 177 c 0
 9 205 4 221 4 248 c 0
 4 264 0 291 0 307 c 0
 0 322 4 347 4 363 c 0
 4 396 10 413 22 449 c 0
 66 590 217 735 360 772 c 0
 377 777 390 780 407 782 c 0
 427 785 461 788 481 788 c 0
562 654 m 1
 562 314 l 1
 562 -30 l 1
 577 -27 l 2
 585 -25 612 -12 637 0 c 0
 692 26 748 73 781 125 c 0
 795 145 806 165 806 167 c 0
 806 170 768 197 722 227 c 0
 654 272 639 285 639 297 c 0
 639 309 655 323 729 371 c 2
 818 431 l 2
 818 431 818 431 818 432 c 2
 809 453 l 2
 807 456 807 461 806 463 c 0
 805 466 802 468 800 471 c 0
 797 478 790 490 786 497 c 0
 785 499 784 500 783 502 c 0
 779 507 773 516 769 521 c 0
 757 536 745 551 731 564 c 0
 728 567 724 571 721 573 c 0
 718 576 715 579 712 581 c 0
 675 611 608 644 562 654 c 1
396 651 m 1
 296 624 188 524 154 427 c 0
 153 425 153 423 153 422 c 0
 153 414 178 393 230 359 c 0
 272 331 306 303 306 298 c 0
 306 285 297 277 226 231 c 0
 191 208 161 189 159 188 c 0
 159 188 159 188 159 187 c 0
 159 184 166 168 175 149 c 0
 203 94 274 29 332 0 c 0
 355 -11 371 -24 381 -24 c 0
 393 -24 401 -10 401 35 c 1
 401 594 l 1
 401 631 398 645 396 651 c 1
EndSplineSet
Validated: 1
EndChar

StartChar: G
Encoding: 71 71 3
Width: 1024
VWidth: 0
Flags: W
HStem: -174 123<354.617 592.759> 51 116<398.578 546.742> 422 115<398.666 546.583> 654 134<357.898 593.888>
VStem: 0 346<251.451 362.428> 801 162<168.204 371>
LayerCount: 2
Fore
SplineSet
481 788 m 0
 609 788 731 738 822 647 c 0
 912 557 963 435 963 307 c 0
 963 179 912 57 822 -33 c 0
 731 -124 609 -174 481 -174 c 0
 354 -174 231 -124 141 -33 c 0
 51 57 -0 179 0 307 c 0
 0 435 51 557 141 647 c 0
 231 738 354 788 481 788 c 0
474 654 m 0
 454 654 433 652 412 648 c 0
 292 623 194 538 153 425 c 1
 159 418 174 406 191 394 c 2
 234 365 l 1
 250 399 l 2
 259 417 281 448 300 466 c 0
 347 514 393 537 462 537 c 0
 468 537 473 537 479 537 c 0
 532 537 572 524 620 491 c 0
 647 472 698 409 707 384 c 0
 708 382 709 381 711 381 c 0
 718 381 732 389 756 405 c 2
 801 436 l 1
 784 469 l 2
 774 488 746 523 721 548 c 0
 654 617 566 654 474 654 c 0
471 422 m 0
 418 422 366 391 350 327 c 0
 347 316 346 305 346 295 c 0
 346 245 375 197 420 176 c 0
 433 170 451 167 470 167 c 0
 493 167 516 171 531 179 c 0
 576 202 603 245 603 295 c 0
 603 377 536 422 471 422 c 0
230 249 m 1
 191 223 l 2
 172 211 153 198 147 194 c 1
 192 56 318 -51 468 -51 c 0
 471 -51 475 -51 478 -51 c 0
 501 -51 523 -48 547 -44 c 0
 602 -32 669 4 713 45 c 0
 753 82 801 153 801 174 c 0
 801 184 747 225 722 235 c 0
 717 235 710 223 704 207 c 0
 687 161 652 118 609 90 c 0
 568 63 522 51 476 51 c 0
 371 51 269 116 238 222 c 2
 230 249 l 1
EndSplineSet
Validated: 1
EndChar

StartChar: I
Encoding: 73 73 4
Width: 1048
VWidth: 0
Flags: W
HStem: -167 21G<912.5 949.5> 91 117<65.0096 373.662> 96 129<188.723 865> 397 129<225.83 865> 762 20G<926 932>
VStem: 865 130<-154.795 96 225 397 526 599.917>
LayerCount: 2
Fore
SplineSet
890 -158 m 0xbc
 870 -136 865 -110 865 -7 c 2
 865 96 l 1
 485 96 l 1xbc
 373 96 292 91 233 91 c 0
 72 91 72 96 60 123 c 0
 56 133 54 142 54 152 c 0
 54 176 67 199 89 208 c 0xdc
 101 213 227 225 485 225 c 1
 865 225 l 1
 865 311 l 1
 865 397 l 1
 485 397 l 1
 367 397 283 389 223 389 c 0
 72 389 72 396 60 423 c 0
 56 433 54 443 54 452 c 0
 54 477 67 500 89 509 c 0
 101 514 227 526 485 526 c 1
 865 526 l 1
 865 635 l 1
 865 755 871 761 909 777 c 0
 918 780 923 782 929 782 c 0
 935 782 941 780 951 776 c 0
 994 758 994 782 994 303 c 0
 994 189 995 105 995 43 c 0
 995 -128 993 -136 983 -148 c 0
 972 -163 964 -167 935 -167 c 0
 930 -167 925 -167 921 -167 c 0
 904 -167 896 -165 890 -158 c 0xbc
EndSplineSet
Validated: 1
EndChar

StartChar: L
Encoding: 76 76 5
Width: 1024
VWidth: 0
Flags: W
HStem: 85 199<364.473 446.431 773.568 873.789> 330 199<146.358 248.479 568.521 651.479>
VStem: 108 199<372.665 490.642> 301 199<123.358 237.337> 510 199<372.665 490.642> 717 199<127.358 244.336>
LayerCount: 2
Fore
SplineSet
208 529 m 0xec
 263 529 307 484 307 429 c 0xec
 307 412 299 386 289 372 c 1
 364 277 l 1
 374 281 390 284 401 284 c 0
 414 284 435 279 447 273 c 1
 528 372 l 1
 518 386 510 412 510 429 c 0
 510 484 555 529 610 529 c 0
 665 529 709 484 709 429 c 0
 709 412 701 386 691 372 c 1
 773 279 l 1
 785 284 804 289 816 289 c 0
 871 289 916 244 916 189 c 0
 916 134 871 89 816 89 c 0
 761 89 717 134 717 189 c 0
 717 206 725 231 734 245 c 1
 652 339 l 1
 641 334 622 330 610 330 c 0
 598 330 579 334 568 339 c 1
 485 238 l 1
 494 224 500 201 500 185 c 0
 500 130 456 85 401 85 c 0
 346 85 301 130 301 185 c 0xdc
 301 204 311 231 322 246 c 1
 249 339 l 1
 238 334 220 330 208 330 c 0
 153 330 108 374 108 429 c 0
 108 484 153 529 208 529 c 0xec
EndSplineSet
Validated: 5
EndChar

StartChar: M
Encoding: 77 77 6
Width: 1024
VWidth: 0
Flags: W
HStem: -101 174<420.002 580.176> 172 57<526 554.874> 270 217<768.032 905.37> 281 108<529.65 619.14> 552 163<501.68 689.202>
VStem: 71 243<189.553 376.166> 438 88<227.456 276.01> 642 129<131.824 256.886> 727 219<310.195 446.53>
LayerCount: 2
Fore
SplineSet
351 -88 m 0xdf
 186 -39 71 90 71 258 c 0
 71 267 71 275 71 284 c 0
 71 344 84 393 115 453 c 0
 197 611 343 714 518 714 c 0
 527 714 537 715 546 715 c 0
 669 715 779 670 872 586 c 0
 900 562 953 495 953 484 c 0
 953 480 942 479 923 481 c 0
 896 484 871 493 803 523 c 0
 758 544 714 552 648 552 c 0
 644 552 640 552 636 552 c 0
 562 552 549 551 521 540 c 0
 417 502 343 425 320 330 c 0
 316 315 314 297 314 281 c 0
 314 202 361 123 433 88 c 0
 454 78 478 73 502 73 c 0
 530 73 557 79 576 92 c 0
 613 116 631 140 639 172 c 0
 641 181 642 189 642 198 c 0
 642 239 619 273 580 281 c 0
 576 282 572 281 568 281 c 0
 546 281 526 267 526 250 c 0
 526 247 526 245 527 243 c 0
 529 236 535 229 540 229 c 0
 552 229 559 220 559 209 c 0
 559 205 558 200 556 196 c 0
 551 188 545 179 541 177 c 0
 536 173 529 172 521 172 c 0
 494 172 457 192 447 217 c 0
 441 232 438 248 438 263 c 0
 438 326 490 388 567 388 c 0
 574 388 581 389 587 389 c 0
 632 389 662 376 698 345 c 0
 749 300 771 253 771 188 c 0
 771 186 771 184 771 181 c 0
 771 82 726 4 636 -51 c 0
 575 -89 542 -101 467 -101 c 0
 455 -101 447 -101 438 -101 c 0
 404 -101 382 -97 351 -88 c 0xdf
793 275 m 0
 753 291 727 332 727 377 c 0
 727 434 758 472 811 484 c 0
 821 486 830 487 839 487 c 0
 895 487 945 446 945 387 c 0
 945 383 946 378 946 374 c 0
 946 314 907 270 845 270 c 0
 842 270 838 270 835 270 c 0xee80
 818 270 800 272 793 275 c 0
EndSplineSet
Validated: 1
EndChar

StartChar: O
Encoding: 79 79 7
Width: 1048
VWidth: 0
Flags: W
HStem: -160 21G<96 116 913 930.5> 536 253<363.921 508.111>
VStem: 853 128<-64.03 564.244>
LayerCount: 2
Fore
SplineSet
885 -165 m 1
 853 -143 853 -137 853 229 c 2
 853 570 l 1
 742 458 l 2
 681 396 522 235 388 98 c 0
 172 -121 133 -160 99 -160 c 0
 93 -160 87 -159 80 -157 c 0
 70 -155 57 -144 51 -133 c 0
 45 -122 42 -116 42 -107 c 0
 42 -101 44 -95 46 -85 c 0
 53 -62 94 -17 365 259 c 0
 832 735 852 755 886 771 c 0
 901 778 909 782 917 782 c 0
 923 782 929 780 938 776 c 0
 982 757 981 782 981 304 c 0
 981 235 981 176 981 125 c 0
 981 -61 980 -133 975 -142 c 0
 964 -164 942 -176 919 -176 c 0
 907 -176 895 -172 885 -165 c 1
392 543 m 0
 347 557 310 614 310 663 c 0
 310 668 310 673 311 678 c 0
 320 734 352 771 406 785 c 0
 417 788 428 789 439 789 c 0
 507 789 563 732 563 663 c 0
 563 651 561 638 558 626 c 0
 543 571 492 536 435 536 c 0
 421 536 406 538 392 543 c 0
EndSplineSet
Validated: 33
EndChar

StartChar: S
Encoding: 83 83 8
Width: 665
VWidth: 0
Flags: W
HStem: -171 21G<598.5 615> 27 82<190.473 377.082> 270 96<80.1528 485.912> 526 76<184.65 378.912> 765 20G<598 604>
VStem: 0 79<215.042 267.822> 537 128.002<-153.08 168 461 661.905>
LayerCount: 2
Fore
SplineSet
570 -162 m 0
 542 -142 534 -130 534 22 c 1
 534 168 l 1
 510 137 l 2
 497 120 469 94 447 79 c 0
 395 44 339 27 284 27 c 0
 213 27 142 56 85 113 c 0
 27 171 0 243 0 314 c 0
 0 435 79 553 215 591 c 0
 242 598 264 602 286 602 c 0
 305 602 324 599 348 593 c 0
 411 577 451 553 496 505 c 2
 537 461 l 1
 537 601 l 2
 537 757 538 765 579 782 c 0
 589 786 595 785 601 785 c 0
 607 785 613 786 623 782 c 0
 664.088888889 763.844444444 665.001975309 784.038518519 665.001975309 368.812115226 c 0
 665.001975309 349.499259259 665 329.244444444 665 308 c 0
 665 228 666 161 666 105 c 0
 666 -63 663 -130 659 -138 c 0
 649 -158 626 -171 604 -171 c 0
 593 -171 578 -167 570 -162 c 0
361 123 m 0
 404 140 452 184 471 227 c 0
 479 244 486 260 486 264 c 0
 486 268 365 270 255 270 c 0
 165 270 82 269 80 265 c 0
 80 264 79 263 79 262 c 0
 79 248 109 197 132 173 c 0
 145 159 173 139 194 129 c 0
 221 116 252 109 283 109 c 0
 309 109 336 114 361 123 c 0
486 374 m 0
 486 379 476 399 464 421 c 0
 440 465 396 502 349 517 c 0
 331 523 309 526 287 526 c 0
 251 526 213 519 187 505 c 0
 147 484 100 433 87 395 c 2
 77 366 l 1
 281 366 l 2
 441 366 486 368 486 374 c 0
EndSplineSet
Validated: 1
EndChar

StartChar: T
Encoding: 84 84 9
Width: 1048
VWidth: 0
Flags: W
HStem: -174 123<391.58 633.359> 62 119<442.888 583.843> 436 116<442.888 583.843> 655 133<391.58 633.359>
VStem: 30 130<183.641 419.564> 266 119<238.668 379.843> 640 116<238.668 379.843> 867 125<183.641 419.564>
LayerCount: 2
Fore
SplineSet
481 552 m 0
 481 552 481 552 481 552 c 0
 617 552 727 442 727 307 c 0
 727 172 617 62 481 62 c 0
 481 62 481 62 481 62 c 0
 346 62 236 172 236 307 c 0
 236 442 346 552 481 552 c 0
483 436 m 0
 413 436 356 379 356 309 c 0
 356 309 356 309 356 309 c 0
 356 238 413 181 483 181 c 0
 483 181 483 181 483 181 c 0
 483 181 483 181 483 181 c 0
 554 181 611 238 611 309 c 0
 611 309 611 309 611 309 c 0
 611 379 554 436 483 436 c 0
 483 436 483 436 483 436 c 0
481 788 m 0
 747 788 963 573 963 307 c 0
 963 307 963 307 963 307 c 0
 963 41 747 -174 481 -174 c 0
 481 -174 481 -174 481 -174 c 0
 216 -174 -0 41 -0 307 c 0
 -0 307 -0 307 0 307 c 0
 0 573 216 788 481 788 c 0
484 655 m 0
 289 655 131 497 131 302 c 0
 131 107 289 -51 484 -51 c 0
 679 -51 837 107 837 302 c 0
 837 497 679 655 484 655 c 0
 484 655 484 655 484 655 c 0
EndSplineSet
Validated: 5
EndChar

StartChar: U
Encoding: 85 85 10
Width: 1048
VWidth: 0
Flags: W
HStem: -174 123<369.967 595.216> 231 156<142 826> 655 133<372.037 593.075>
VStem: -0 963<233.667 380.333>
LayerCount: 2
Fore
SplineSet
481 788 m 0
 747 788 963 573 963 307 c 0
 963 41 747 -174 481 -174 c 0
 216 -174 -0 41 -0 307 c 0
 0 573 216 788 481 788 c 0
484 655 m 0
 332 655 178 535 142 387 c 1
 826 387 l 1
 789 535 636 655 484 655 c 0
138 231 m 1
 170 76 325 -51 484 -51 c 0
 643 -51 798 76 830 231 c 1
 138 231 l 1
EndSplineSet
Validated: 5
EndChar

StartChar: Z
Encoding: 90 90 11
Width: 1024
VWidth: 0
Flags: W
HStem: -174 566<368.835 647.081> 655 133<403.203 625.229>
VStem: 31 962<164.851 384.734>
LayerCount: 2
Fore
SplineSet
512 788 m 0
 530 788 559 782 577 782 c 0
 599 782 614 779 636 772 c 0
 782 733 934 583 975 437 c 0
 983 412 988 396 988 372 c 0
 988 354 993 325 993 307 c 0
 993 288 991 257 988 237 c 0
 986 221 984 209 979 193 c 0
 930 -9 720 -174 512 -174 c 0
 246 -174 31 41 31 307 c 0
 31 515 195 724 397 774 c 0
 414 779 427 782 445 782 c 0
 463 782 493 788 512 788 c 0
515 655 m 0
 364 655 211 537 173 392 c 1
 507 392 l 1
 851 392 l 1
 848 406 l 2
 838 450 801 511 761 555 c 0
 704 610 594 655 515 655 c 0
EndSplineSet
Validated: 1
EndChar

StartChar: N
Encoding: 78 78 12
Width: 1024
VWidth: 0
Flags: W
HStem: 120 66<458.59 548.294> 235 62<466.418 507.973> 368 126<384.887 524.618> 368 117<378.641 453.877>
VStem: 399 54<193.137 251.652> 571 91<208.614 322.421>
LayerCount: 2
Fore
SplineSet
464 127 m 0xec
 424 143 399 184 399 223 c 0
 399 241 404 258 416 272 c 0
 430 289 449 297 467 297 c 0
 484 297 500 289 509 273 c 0
 512 267 513 262 513 257 c 0
 513 245 506 235 498 235 c 0
 493 235 488 238 484 246 c 0
 478 255 475 256 466 250 c 0
 457 244 453 236 453 227 c 0
 453 210 467 192 489 187 c 0
 493 186 497 186 501 186 c 0
 538 186 571 223 571 263 c 0
 571 266 571 268 571 271 c 0
 564 329 513 368 446 368 c 0
 444 368 441 368 439 368 c 0
 436 368 434 368 431 368 c 0xec
 393 368 366 383 362 407 c 0
 362 409 362 410 362 412 c 0
 362 437 381 476 399 485 c 0xdc
 410 491 431 494 455 494 c 0
 486 494 521 489 541 480 c 0
 618 445 662 367 662 290 c 0
 662 247 649 205 620 171 c 0
 590 136 558 120 518 120 c 0
 516 120 515 120 514 120 c 0
 495 120 472 123 464 127 c 0xec
EndSplineSet
Validated: 1
EndChar

StartChar: K
Encoding: 75 75 13
Width: 1048
VWidth: 0
Flags: W
HStem: -117 180<431.761 592.894> 167 59<539 568.347> 280 112<542.55 634.412> 562 169<513.936 708.438>
VStem: 66 253<192.379 376.535> 447 92<224.703 274.274> 660 134<129.338 254.665>
LayerCount: 2
Fore
SplineSet
357 -104 m 0
 185 -53 66 81 66 256 c 0
 66 267 66 277 66 287 c 0
 66 348 79 399 111 459 c 0
 196 623 348 730 531 730 c 0
 541 730 550 731 560 731 c 0
 687 731 802 687 899 600 c 0
 927 574 983 502 983 491 c 0
 983 488 978 487 968 487 c 0
 963 487 958 487 951 488 c 0
 924 491 897 500 826 532 c 0
 776 554 729 562 653 562 c 0
 576 562 563 561 534 550 c 0
 426 510 349 430 325 332 c 0
 321 316 319 300 319 283 c 0
 319 200 368 116 442 79 c 0
 464 68 489 63 514 63 c 0
 543 63 571 70 591 83 c 0
 629 108 648 134 656 167 c 0
 659 177 660 184 660 194 c 0
 660 236 635 271 595 280 c 0
 591 281 587 280 583 280 c 0
 560 280 539 265 539 248 c 0
 539 245 539 243 540 241 c 0
 543 233 548 226 553 226 c 0
 565 226 574 217 574 205 c 0
 574 201 572 197 570 192 c 0
 566 184 558 175 554 172 c 0
 548 168 541 167 533 167 c 0
 505 167 468 187 457 213 c 0
 450 229 447 245 447 261 c 0
 447 327 502 391 581 391 c 0
 589 391 597 392 605 392 c 0
 650 392 681 379 718 346 c 0
 770 299 794 251 794 183 c 0
 794 181 794 179 794 176 c 0
 794 73 747 -8 654 -65 c 0
 590 -104 555 -117 477 -117 c 0
 465 -117 456 -117 447 -117 c 0
 412 -117 389 -113 357 -104 c 0
EndSplineSet
Validated: 1
EndChar

StartChar: Y
Encoding: 89 89 14
Width: 1048
VWidth: 0
Flags: W
HStem: -174 123<405 646> 655 133<405 646>
VStem: 43 131<184 420> 880 125<184 420>
LayerCount: 2
Fore
SplineSet
481 788 m 0
 747 788 963 573 963 307 c 0
 963 307 963 307 963 307 c 0
 963 41 747 -174 481 -174 c 0
 481 -174 481 -174 481 -174 c 0
 216 -174 -0 41 -0 307 c 0
 -0 307 -0 307 0 307 c 0
 0 573 216 788 481 788 c 0
 481 788 481 788 481 788 c 0
484 655 m 0
 289 655 131 497 131 302 c 0
 131 107 289 -51 484 -51 c 0
 679 -51 837 107 837 302 c 0
 837 497 679 655 484 655 c 0
 484 655 484 655 484 655 c 0
485 437 m 0
 485 437 485 437 485 437 c 0
 555 437 612 380 612 311 c 0
 612 311 612 311 612 311 c 0
 612 241 555 184 485 184 c 0
 485 184 485 184 485 184 c 0
 416 184 359 241 359 311 c 0
 359 311 359 311 359 311 c 0
 359 380 416 437 485 437 c 0
EndSplineSet
Validated: 5
EndChar

StartChar: space
Encoding: 32 32 15
Width: 1024
VWidth: 0
LayerCount: 2
Fore
SplineSet
0 0 m 1
 1024 0 l 1025
EndSplineSet
Validated: 3
EndChar

StartChar: J
Encoding: 74 74 16
Width: 550
VWidth: 0
Flags: W
HStem: -172 21G<114 127.5> 124 65<292.051 379.875> 238 63<299.418 340.397> 372 127<219.509 357.56> 765 20G<115 121>
VStem: 54 127<29.5614 320 477 718.697> 233 53<195.788 254.379> 404 91<212.625 327.664>
LayerCount: 2
Fore
SplineSet
87 -161 m 0
 54 -138 54 -140 54 317 c 0
 54 356 54 392 54 425 c 0
 54 784 56 765 96 782 c 0
 106 786 112 785 118 785 c 0
 124 785 130 786 140 782 c 0
 180 765 182 756 182 607 c 0
 182 506 184 477 189 477 c 0
 190 477 190 477 190 477 c 0
 225 492 260 499 294 499 c 0
 325 499 355 493 383 479 c 0
 455 443 495 368 495 294 c 0
 495 251 482 209 453 175 c 0
 422 138 393 124 350 124 c 0
 346 124 342 124 338 124 c 0
 293 124 272 139 248 174 c 0
 238 189 233 207 233 225 c 0
 233 244 239 263 250 276 c 0
 264 292 282 301 300 301 c 0
 317 301 334 292 342 276 c 0
 345 270 346 265 346 260 c 0
 346 248 339 238 331 238 c 0
 326 238 321 242 317 249 c 0
 312 258 308 259 299 253 c 0
 290 248 286 239 286 231 c 0
 286 214 300 195 322 190 c 0
 326 189 329 189 333 189 c 0
 370 189 404 226 404 267 c 0
 404 270 404 272 404 275 c 0
 404 325 345 372 294 372 c 0
 293 372 292 372 292 372 c 0
 263 372 218 354 199 336 c 2
 181 320 l 1
 181 105 l 1
 181 -14 183 -116 183 -122 c 0
 182 -129 174 -142 163 -153 c 0
 151 -165 135 -172 120 -172 c 0
 108 -172 97 -168 87 -161 c 0
EndSplineSet
Validated: 1
EndChar

StartChar: W
Encoding: 87 87 17
Width: 665
VWidth: 0
Flags: W
HStem: -171 21G<597 614> 21 78<188.62 381.617> 238 152<234.596 334.253> 518 84<185.889 382.396> 765 20G<597 603.5>
VStem: 0 74<211.635 403.357> 210 149<260.837 365.802> 494 171.002<212.638 387.938> 537 128.002<-152.016 162 460 661.226>
LayerCount: 2
Fore
SplineSet
570 -161 m 0xff
 541 -141 537 -118 537 27 c 2
 537 162 l 1
 512 131 l 2
 479 89 424 54 365 35 c 0
 334 26 312 21 290 21 c 0
 271 21 252 25 228 31 c 0
 172 45 130 68 89 108 c 0
 28 166 0 239 0 311 c 0
 0 444 93 572 247 598 c 0
 265 601 278 602 291 602 c 0
 305 602 317 601 334 597 c 0
 411 582 479 541 518 486 c 2
 537 460 l 1
 537 600 l 2xfe80
 537 756 538 764 579 782 c 0
 588 785 594 785 600 785 c 0
 607 785 613 783 623 779 c 0
 664.088888889 761.8 665.001975309 783.862716049 665.001975309 368.800526749 c 0
 665.001975309 349.495308642 665 329.244444444 665 308 c 0
 665 228 666 161 666 105 c 0
 666 -63 663 -130 659 -138 c 0
 648 -159 625 -171 603 -171 c 0
 591 -171 580 -168 570 -161 c 0xff
371 116 m 0
 418 138 451 170 474 217 c 0
 492 253 494 265 494 308 c 0xff
 494 352 492 364 474 400 c 0
 451 446 418 479 371 502 c 0
 350 512 317 518 284 518 c 0
 251 518 218 512 197 502 c 0
 149 478 117 446 94 400 c 0
 76 364 74 352 74 309 c 0
 74 215 127 140 217 108 c 0
 234 102 256 99 279 99 c 0
 313 99 348 105 371 116 c 0
232 260 m 0
 214 278 210 286 210 308 c 0
 210 344 227 370 258 382 c 0
 269 387 276 390 283 390 c 0
 291 390 298 387 311 382 c 0
 342 370 359 343 359 314 c 0
 359 295 352 276 336 260 c 0
 317 241 310 238 284 238 c 0
 258 238 251 241 232 260 c 0
EndSplineSet
Validated: 1
EndChar

StartChar: X
Encoding: 88 88 19
Width: 310
VWidth: 0
Flags: W
HStem: 465 257<77.7547 224.999>
VStem: 23 258<521.56 667.563>
LayerCount: 2
Fore
SplineSet
97 475 m 0
 48 499 23 549 23 598 c 0
 23 642 44 685 86 706 c 0
 107 717 129 722 151 722 c 0
 201 722 248 695 271 648 c 0
 278 634 281 617 281 599 c 0
 281 562 267 521 242 499 c 0
 218 477 181 465 146 465 c 0
 128 465 111 468 97 475 c 0
EndSplineSet
Validated: 1
EndChar

StartChar: R
Encoding: 82 82 20
Width: 1048
VWidth: 0
Flags: W
HStem: -174 21G<348.5 614> 768 20G<348.5 614>
VStem: -0 133<197.663 419.048> 401 157<-33 652> 840 123<195.811 420.9>
LayerCount: 2
Fore
SplineSet
-0 307 m 0
 0 573 216 788 481 788 c 0
 747 788 963 573 963 307 c 0
 963 41 747 -174 481 -174 c 0
 216 -174 -0 41 -0 307 c 0
133 310 m 0
 133 157 253 4 401 -33 c 1
 401 652 l 1
 253 615 133 462 133 310 c 0
558 -36 m 1
 713 -4 840 151 840 310 c 0
 840 468 713 623 558 655 c 1
 558 -36 l 1
EndSplineSet
Validated: 5
EndChar

StartChar: Q
Encoding: 81 81 21
Width: 1048
VWidth: 0
Flags: W
HStem: -174 963<381 667>
VStem: 43 963<164 450>
LayerCount: 2
Fore
SplineSet
524 788 m 0
 790 788 1006 573 1006 307 c 0
 1006 41 790 -174 524 -174 c 0
 258 -174 43 41 43 307 c 0
 43 573 258 788 524 788 c 0
EndSplineSet
Validated: 1
EndChar

StartChar: D
Encoding: 68 68 22
Width: 1024
VWidth: 0
Flags: W
HStem: -174 123<372.271 592.633> 653 129<362.769 589.998>
LayerCount: 2
Fore
SplineSet
481 788 m 0
 506 788 546 786 570 782 c 0
 577 781 583 777 590 775 c 0
 795 728 963 518 963 307 c 0
 963 41 747 -174 481 -174 c 0
 216 -174 0 41 0 307 c 0
 0 528 176 741 393 782 c 0
 396 782 398 782 401 782 c 0
 423 786 459 788 481 788 c 0
479 653 m 0
 446 653 414 649 382 640 c 0
 289 612 186 514 152 423 c 1
 163 412 192 389 232 363 c 0
 277 333 315 304 315 300 c 0
 315 285 306 278 228 227 c 0
 194 205 164 185 153 178 c 1
 200 54 346 -51 478 -51 c 0
 501 -51 524 -48 547 -44 c 0
 602 -32 669 4 713 45 c 0
 752 81 801 153 801 172 c 0
 801 173 801 173 801 173 c 0
 801 178 766 205 724 232 c 0
 674 265 649 281 649 297 c 0
 649 314 675 330 727 365 c 2
 807 418 l 1
 798 441 l 2
 757 538 651 625 547 646 c 0
 524 651 502 653 479 653 c 0
EndSplineSet
Validated: 1
EndChar

StartChar: C
Encoding: 67 67 23
Width: 1048
VWidth: 0
Flags: W
HStem: 7 141<396.085 651.429> 303 142<396.279 651.132>
LayerCount: 2
Fore
SplineSet
132 311 m 0
 148 311 164 301 195 278 c 0
 205 270 216 263 227 256 c 0
 298 196 431 148 524 148 c 0
 628 148 773 207 848 280 c 1
 876 301 898 311 917 311 c 0
 931 311 944 306 958 296 c 0
 978 281 996 247 996 223 c 0
 996 220 996 217 995 214 c 0
 988 186 896 115 816 75 c 0
 728 31 616 7 512 7 c 0
 469 7 428 11 391 19 c 0
 224 55 67 148 54 219 c 0
 53 223 53 227 53 231 c 0
 53 260 71 288 100 302 c 4
 113 308 122 311 132 311 c 0
132 608 m 0
 148 608 164 598 195 575 c 0
 205 567 215 560 226 553 c 0
 297 493 431 445 524 445 c 0
 628 445 773 503 848 576 c 1
 876 597 898 607 917 607 c 0
 931 607 944 602 958 592 c 0
 978 577 995 543 995 520 c 0
 995 516 995 513 994 510 c 0
 987 482 896 411 816 371 c 0
 728 327 615 303 511 303 c 0
 468 303 427 307 390 315 c 0
 223 351 67 445 54 516 c 0
 53 520 53 524 53 529 c 0
 53 557 70 584 99 598 c 0
 112 604 122 608 132 608 c 0
EndSplineSet
Validated: 1
EndChar

StartChar: V
Encoding: 86 86 24
Width: 1048
VWidth: 0
Flags: W
HStem: 565 20G<491 561>
LayerCount: 2
Fore
SplineSet
132 333 m 0
 148 333 164 323 195 300 c 0
 205 292 215 285 226 278 c 0
 297 218 431 170 524 170 c 0
 628 170 773 229 848 302 c 1
 876 323 897 333 916 333 c 0
 931 333 944 327 958 317 c 0
 978 302 996 268 996 244 c 0
 996 241 996 238 995 235 c 0
 988 207 896 137 816 97 c 0
 727 53 614 28 509 28 c 0
 467 28 427 32 390 40 c 0
 223 76 67 170 54 241 c 0
 53 245 53 249 53 254 c 0
 53 282 70 310 99 324 c 0
 112 330 122 333 132 333 c 0
526 586 m 0
 596 586 652 530 652 460 c 0
 652 390 596 333 526 333 c 0
 456 333 400 390 400 460 c 0
 400 530 456 586 526 586 c 0
EndSplineSet
Validated: 1
EndChar

StartChar: B
Encoding: 66 66 25
Width: 1024
VWidth: 0
Flags: W
HStem: 20 163<344.752 670.88> 431 163<374.514 620.973>
LayerCount: 2
Fore
SplineSet
377 32 m 0
 276 53 208 82 126 135 c 0
 67 174 39 209 39 245 c 0
 39 256 42 267 47 278 c 0
 60 303 95 325 120 325 c 0
 123 325 125 325 128 324 c 0
 136 322 163 305 188 288 c 0
 245 246 289 224 357 201 c 0
 407 184 420 183 508 183 c 0
 596 183 608 184 658 201 c 0
 730 225 775 248 827 288 c 0
 852 307 880 322 892 324 c 0
 895 324 897 325 900 325 c 0
 940 325 985 279 985 236 c 0
 985 208 890 132 802 88 c 0
 714 44 602 20 498 20 c 0
 456 20 415 24 377 32 c 0
245 351 m 0
 238 354 225 365 215 374 c 0
 203 386 196 401 196 417 c 0
 196 444 213 475 246 507 c 0
 256 517 287 536 315 550 c 0
 375 579 435 594 496 594 c 0
 527 594 560 590 592 582 c 0
 716 550 803 476 803 416 c 0
 803 398 795 382 779 368 c 0
 763 355 752 348 739 348 c 0
 725 348 710 356 684 374 c 0
 616 419 578 431 498 431 c 0
 419 431 380 419 313 374 c 0
 282 354 271 347 261 347 c 0
 256 347 252 348 245 351 c 0
EndSplineSet
Validated: 1
EndChar

StartChar: H
Encoding: 72 72 26
Width: 1024
VWidth: 0
Flags: W
HStem: -174 123<363.126 595.117> 175 253<406.295 548.658> 653 135<358.301 596.141>
VStem: 350 253<232.676 371.75> 802 156<148.922 195.323 412.385 464.415>
LayerCount: 2
Fore
SplineSet
481 788 m 0
 511 788 540 788 569 782 c 0
 575 781 581 778 588 776 c 0
 675 756 757 712 822 647 c 0
 881 588 923 515 945 436 c 0
 953 411 958 395 958 371 c 0
 958 350 963 328 963 307 c 0
 963 285 958 263 958 242 c 0
 958 221 953 206 947 186 c 0
 926 104 883 28 822 -33 c 0
 731 -124 609 -174 481 -174 c 0
 354 -174 231 -124 141 -33 c 0
 51 57 -0 179 0 307 c 0
 0 435 51 557 141 647 c 0
 231 738 354 788 481 788 c 0
481 653 m 0
 479 653 477 653 476 653 c 0
 417 653 359 637 308 608 c 0
 237 568 182 503 153 426 c 1
 161 416 193 392 231 367 c 0
 275 338 310 310 310 306 c 0
 310 291 302 284 226 234 c 0
 186 209 160 188 153 179 c 1
 196 62 299 -25 425 -46 c 0
 443 -49 462 -51 481 -51 c 0
 504 -51 526 -48 549 -44 c 0
 604 -32 671 4 715 45 c 0
 756 82 802 152 802 172 c 0
 802 173 802 174 802 175 c 0
 801 181 765 208 722 237 c 0
 671 271 645 287 645 304 c 0
 645 320 671 337 723 372 c 0
 767 401 802 428 802 432 c 0
 802 450 752 524 715 558 c 0
 671 599 604 635 549 646 c 0
 526 651 504 653 481 653 c 0
481 428 m 0
 548 428 603 370 603 302 c 0
 603 290 602 277 598 265 c 0
 583 210 533 175 476 175 c 0
 461 175 447 177 432 182 c 0
 387 196 350 252 350 302 c 0
 350 307 349 312 350 317 c 0
 359 373 393 409 447 424 c 0
 458 427 470 428 481 428 c 0
EndSplineSet
Validated: 1
EndChar

StartChar: a
Encoding: 97 97 27
Width: 1024
VWidth: 0
Flags: W
HStem: -173 362<447.325 576.506> 425 362<447.325 576.506>
VStem: 32 362<242.325 371.675> 629 363<242.325 371.675>
LayerCount: 2
Fore
SplineSet
512 787 m 0
 777 787 992 572 992 307 c 0
 992 42 777 -173 512 -173 c 0
 247 -173 32 42 32 307 c 0
 32 572 247 787 512 787 c 0
512 425 m 0
 447 425 394 372 394 307 c 0
 394 242 447 189 512 189 c 0
 577 189 629 242 629 307 c 0
 629 372 577 425 512 425 c 0
EndSplineSet
Validated: 1
EndChar

StartChar: b
Encoding: 98 98 28
Width: 1024
VWidth: 0
Flags: W
HStem: 20 163<344.752 670.88> 431 163<374.514 620.973>
LayerCount: 2
Fore
SplineSet
377 32 m 0
 276 53 208 82 126 135 c 0
 67 174 39 209 39 245 c 0
 39 256 42 267 47 278 c 0
 60 303 95 325 120 325 c 0
 123 325 125 325 128 324 c 0
 136 322 163 305 188 288 c 0
 245 246 289 224 357 201 c 0
 407 184 420 183 508 183 c 0
 596 183 608 184 658 201 c 0
 730 225 775 248 827 288 c 0
 852 307 880 322 892 324 c 0
 895 324 897 325 900 325 c 0
 940 325 985 279 985 236 c 0
 985 208 890 132 802 88 c 0
 714 44 602 20 498 20 c 0
 456 20 415 24 377 32 c 0
245 351 m 0
 238 354 225 365 215 374 c 0
 203 386 196 401 196 417 c 0
 196 444 213 475 246 507 c 0
 256 517 287 536 315 550 c 0
 375 579 435 594 496 594 c 0
 527 594 560 590 592 582 c 0
 716 550 803 476 803 416 c 0
 803 398 795 382 779 368 c 0
 763 355 752 348 739 348 c 0
 725 348 710 356 684 374 c 0
 616 419 578 431 498 431 c 0
 419 431 380 419 313 374 c 0
 282 354 271 347 261 347 c 0
 256 347 252 348 245 351 c 0
EndSplineSet
Validated: 1
EndChar

StartChar: c
Encoding: 99 99 29
Width: 1048
VWidth: 0
Flags: W
HStem: 7 141<396.085 651.429> 303 142<396.279 651.132>
LayerCount: 2
Fore
SplineSet
132 311 m 0
 148 311 164 301 195 278 c 0
 205 270 216 263 227 256 c 0
 298 196 431 148 524 148 c 0
 628 148 773 207 848 280 c 1
 876 301 898 311 917 311 c 0
 931 311 944 306 958 296 c 0
 978 281 996 247 996 223 c 0
 996 220 996 217 995 214 c 0
 988 186 896 115 816 75 c 0
 728 31 616 7 512 7 c 0
 469 7 428 11 391 19 c 0
 224 55 67 148 54 219 c 0
 53 223 53 227 53 231 c 0
 53 260 71 288 100 302 c 4
 113 308 122 311 132 311 c 0
132 608 m 0
 148 608 164 598 195 575 c 0
 205 567 215 560 226 553 c 0
 297 493 431 445 524 445 c 0
 628 445 773 503 848 576 c 1
 876 597 898 607 917 607 c 0
 931 607 944 602 958 592 c 0
 978 577 995 543 995 520 c 0
 995 516 995 513 994 510 c 0
 987 482 896 411 816 371 c 0
 728 327 615 303 511 303 c 0
 468 303 427 307 390 315 c 0
 223 351 67 445 54 516 c 0
 53 520 53 524 53 529 c 0
 53 557 70 584 99 598 c 0
 112 604 122 608 132 608 c 0
EndSplineSet
Validated: 1
EndChar

StartChar: d
Encoding: 100 100 30
Width: 1024
VWidth: 0
Flags: W
HStem: -174 123<372.271 592.633> 653 135<362.769 589.998>
LayerCount: 2
Fore
SplineSet
481 788 m 0
 506 788 546 786 570 782 c 0
 577 781 583 777 590 775 c 0
 795 728 963 518 963 307 c 0
 963 41 747 -174 481 -174 c 0
 216 -174 0 41 0 307 c 0
 0 528 176 741 393 782 c 0
 396 782 398 782 401 782 c 0
 423 786 459 788 481 788 c 0
479 653 m 0
 446 653 414 649 382 640 c 0
 289 612 186 514 152 423 c 1
 163 412 192 389 232 363 c 0
 277 333 315 304 315 300 c 0
 315 285 306 278 228 227 c 0
 194 205 164 185 153 178 c 1
 200 54 346 -51 478 -51 c 0
 501 -51 524 -48 547 -44 c 0
 602 -32 669 4 713 45 c 0
 752 81 801 153 801 172 c 0
 801 173 801 173 801 173 c 0
 801 178 766 205 724 232 c 0
 674 265 649 281 649 297 c 0
 649 314 675 330 727 365 c 2
 807 418 l 1
 798 441 l 2
 757 538 651 625 547 646 c 0
 524 651 502 653 479 653 c 0
EndSplineSet
Validated: 1
EndChar

StartChar: e
Encoding: 101 101 31
Width: 1048
VWidth: 0
Flags: W
HStem: -174 123<405 646> 655 133<405 646>
VStem: 43 131<184 420> 880 125<184 420>
LayerCount: 2
Fore
SplineSet
481 788 m 0
 747 788 963 573 963 307 c 0
 963 307 963 307 963 307 c 0
 963 41 747 -174 481 -174 c 0
 481 -174 481 -174 481 -174 c 0
 216 -174 -0 41 -0 307 c 0
 -0 307 -0 307 0 307 c 0
 -0 573 216 788 481 788 c 0
484 655 m 0
 289 655 131 497 131 302 c 0
 131 107 289 -51 484 -51 c 0
 679 -51 837 107 837 302 c 0
 837 497 679 655 484 655 c 0
 484 655 484 655 484 655 c 0
EndSplineSet
Validated: 5
EndChar

StartChar: f
Encoding: 102 102 32
Width: 1024
VWidth: 0
Flags: W
HStem: -174 150<313.05 552.629> 768 20G<471 614>
VStem: 0 159<392.893 448.989> 401 161<-23.9897 650.713> 806 157<101.221 440>
LayerCount: 2
Fore
SplineSet
481 788 m 0
 747 788 963 573 963 307 c 0
 963 41 747 -174 481 -174 c 0
 280 -174 73 -17 18 177 c 0
 9 205 4 221 4 248 c 0
 4 264 0 291 0 307 c 0
 0 322 4 347 4 363 c 0
 4 396 10 413 22 449 c 0
 66 590 217 735 360 772 c 0
 377 777 390 780 407 782 c 0
 427 785 461 788 481 788 c 0
562 654 m 1
 562 314 l 1
 562 -30 l 1
 577 -27 l 2
 585 -25 612 -12 637 0 c 0
 692 26 748 73 781 125 c 0
 795 145 806 165 806 167 c 0
 806 170 768 197 722 227 c 0
 654 272 639 285 639 297 c 0
 639 309 655 323 729 371 c 2
 818 431 l 2
 818 431 818 431 818 432 c 2
 809 453 l 2
 807 456 807 461 806 463 c 0
 805 466 802 468 800 471 c 0
 797 478 790 490 786 497 c 0
 785 499 784 500 783 502 c 0
 779 507 773 516 769 521 c 0
 757 536 745 551 731 564 c 0
 728 567 724 571 721 573 c 0
 718 576 715 579 712 581 c 0
 675 611 608 644 562 654 c 1
396 651 m 1
 296 624 188 524 154 427 c 0
 153 425 153 423 153 422 c 0
 153 414 178 393 230 359 c 0
 272 331 306 303 306 298 c 0
 306 285 297 277 226 231 c 0
 191 208 161 189 159 188 c 0
 159 188 159 188 159 187 c 0
 159 184 166 168 175 149 c 0
 203 94 274 29 332 0 c 0
 355 -11 371 -24 381 -24 c 0
 393 -24 401 -10 401 35 c 1
 401 594 l 1
 401 631 398 645 396 651 c 1
EndSplineSet
Validated: 1
EndChar

StartChar: g
Encoding: 103 103 33
Width: 1024
VWidth: 0
Flags: W
HStem: -174 123<363.994 592.759> 51 116<398.578 546.742> 422 115<400.659 546.583> 654 134<357.898 593.888>
VStem: 0 346<251.451 362.372> 801 162<168.204 371>
LayerCount: 2
Fore
SplineSet
481 788 m 0
 609 788 731 738 822 647 c 0
 912 557 963 435 963 307 c 0
 963 179 912 57 822 -33 c 0
 731 -124 609 -174 481 -174 c 0
 354 -174 231 -124 141 -33 c 0
 51 57 -0 179 0 307 c 0
 0 435 51 557 141 647 c 0
 231 738 354 788 481 788 c 0
474 654 m 0
 454 654 433 652 412 648 c 0
 292 623 194 538 153 425 c 1
 159 418 174 406 191 394 c 2
 234 365 l 1
 250 399 l 2
 259 417 281 448 300 466 c 0
 347 514 393 537 462 537 c 0
 468 537 473 537 479 537 c 0
 532 537 572 524 620 491 c 0
 647 472 698 409 707 384 c 0
 708 382 709 381 711 381 c 0
 718 381 732 389 756 405 c 2
 801 436 l 1
 784 469 l 2
 774 488 746 523 721 548 c 0
 654 617 566 654 474 654 c 0
471 422 m 0
 418 422 366 391 350 327 c 0
 347 316 346 305 346 295 c 0
 346 245 375 197 420 176 c 0
 433 170 451 167 470 167 c 0
 493 167 516 171 531 179 c 0
 576 202 603 245 603 295 c 0
 603 377 536 422 471 422 c 0
230 249 m 1
 191 223 l 2
 172 211 153 198 147 194 c 1
 192 56 318 -51 468 -51 c 0
 471 -51 475 -51 478 -51 c 0
 501 -51 523 -48 547 -44 c 0
 602 -32 669 4 713 45 c 0
 753 82 801 153 801 174 c 0
 801 184 747 225 722 235 c 0
 717 235 710 223 704 207 c 0
 687 161 652 118 609 90 c 0
 568 63 522 51 476 51 c 0
 371 51 269 116 238 222 c 2
 230 249 l 1
EndSplineSet
Validated: 1
EndChar

StartChar: h
Encoding: 104 104 34
Width: 1024
VWidth: 0
Flags: W
HStem: -174 123<363.126 595.117> 175 253<406.488 548.658> 653 135<358.301 596.141>
VStem: 350 253<232.676 371.486> 802 156<148.922 194.777 411.375 464.415>
LayerCount: 2
Fore
SplineSet
481 788 m 0
 511 788 540 788 569 782 c 0
 575 781 581 778 588 776 c 0
 675 756 757 712 822 647 c 0
 881 588 923 515 945 436 c 0
 953 411 958 395 958 371 c 0
 958 350 963 328 963 307 c 0
 963 285 958 263 958 242 c 0
 958 221 953 206 947 186 c 0
 926 104 883 28 822 -33 c 0
 731 -124 609 -174 481 -174 c 0
 354 -174 231 -124 141 -33 c 0
 51 57 -0 179 0 307 c 0
 0 435 51 557 141 647 c 0
 231 738 354 788 481 788 c 0
481 653 m 0
 479 653 477 653 476 653 c 0
 417 653 359 637 308 608 c 0
 237 568 182 503 153 426 c 1
 161 416 193 392 231 367 c 0
 275 338 310 310 310 306 c 0
 310 291 302 284 226 234 c 0
 186 209 160 188 153 179 c 1
 196 62 299 -25 425 -46 c 0
 443 -49 462 -51 481 -51 c 0
 504 -51 526 -48 549 -44 c 0
 604 -32 671 4 715 45 c 0
 756 82 802 152 802 172 c 0
 802 173 802 174 802 175 c 0
 801 181 765 208 722 237 c 0
 671 271 645 287 645 304 c 0
 645 320 671 337 723 372 c 0
 767 401 802 428 802 432 c 0
 802 450 752 524 715 558 c 0
 671 599 604 635 549 646 c 0
 526 651 504 653 481 653 c 0
481 428 m 0
 548 428 603 370 603 302 c 0
 603 290 602 277 598 265 c 0
 583 210 533 175 476 175 c 0
 461 175 447 177 432 182 c 0
 387 196 350 252 350 302 c 0
 350 307 349 312 350 317 c 0
 359 373 393 409 447 424 c 0
 458 427 470 428 481 428 c 0
EndSplineSet
Validated: 1
EndChar

StartChar: i
Encoding: 105 105 35
Width: 1048
VWidth: 0
Flags: W
HStem: 91 129<189 862> 392 129<189 862>
VStem: 865 129<13 96 225 397 526 600>
LayerCount: 2
Back
SplineSet
394 -161 m 0
 364 -140 362 -124 362 106 c 2
 362 321 l 1
 344 337 l 2
 325 355 281 372 252 372 c 0
 252 372 251 372 250 372 c 0
 198 372 145 325 140 275 c 0
 140 272 139 269 139 266 c 0
 139 226 174 189 210 189 c 0
 214 189 217 189 221 190 c 0
 244 195 258 214 258 231 c 0
 258 240 254 248 245 253 c 0
 235 259 232 258 227 249 c 0
 223 242 218 238 213 238 c 0
 205 238 197 248 197 259 c 0
 197 265 199 270 202 276 c 0
 210 292 227 301 244 301 c 0
 262 301 280 292 294 276 c 0
 306 262 311 245 311 227 c 0
 311 196 294 162 264 140 c 0
 249 129 223 123 197 123 c 0
 175 123 154 127 139 135 c 0
 84 163 49 223 49 292 c 0
 49 297 50 303 50 308 c 0
 58 424 144 499 251 499 c 0
 284 499 319 492 354 477 c 0
 354 477 354 477 355 477 c 0
 360 477 362 506 362 607 c 0
 362 756 363 763 404 780 c 0
 413 783 419 785 425 785 c 0
 432 785 438 783 448 779 c 0
 491 761 489 786 491 308 c 0
 491 255 491 208 491 166 c 0
 491 -50 489 -129 484 -138 c 0
 473 -159 450 -171 428 -171 c 0
 416 -171 404 -168 394 -161 c 0
EndSplineSet
Fore
SplineSet
890 -158 m 0
 870 -136 865 -110 865 -7 c 2
 865 96 l 1
 485 96 l 1
 373 96 292 91 233 91 c 0
 72 91 72 96 60 123 c 0
 56 133 54 142 54 152 c 0
 54 176 67 199 89 208 c 0
 101 213 227 225 485 225 c 1
 865 225 l 1
 865 311 l 1
 865 397 l 1
 485 397 l 1
 367 397 283 389 223 389 c 0
 72 389 72 396 60 423 c 0
 56 433 54 443 54 452 c 0
 54 477 67 500 89 509 c 0
 101 514 227 526 485 526 c 1
 865 526 l 1
 865 635 l 1
 865 755 871 761 909 777 c 0
 918 780 923 782 929 782 c 0
 935 782 941 780 951 776 c 0
 994 758 994 782 994 303 c 0
 994 189 995 105 995 43 c 0
 995 -128 993 -136 983 -148 c 0
 972 -163 964 -167 935 -167 c 0
 930 -167 925 -167 921 -167 c 0
 904 -167 896 -165 890 -158 c 0
EndSplineSet
Validated: 1
EndChar

StartChar: j
Encoding: 106 106 36
Width: 550
VWidth: 0
Flags: W
HStem: -172 21G<114 127.5> 124 65<292.051 379.875> 238 63<299.418 340.397> 372 127<219.509 356.195> 765 20G<115 121>
VStem: 54 128<18.6821 320 477 722.408> 233 53<195.788 254.379> 404 91<212.625 325.167>
LayerCount: 2
Fore
SplineSet
87 -161 m 0
 54 -138 54 -140 54 317 c 0
 54 356 54 392 54 425 c 0
 54 784 56 765 96 782 c 0
 106 786 112 785 118 785 c 0
 124 785 130 786 140 782 c 0
 180 765 182 756 182 607 c 0
 182 506 184 477 189 477 c 0
 190 477 190 477 190 477 c 0
 225 492 260 499 294 499 c 0
 325 499 355 493 383 479 c 0
 455 443 495 368 495 294 c 0
 495 251 482 209 453 175 c 0
 422 138 393 124 350 124 c 0
 346 124 342 124 338 124 c 0
 293 124 272 139 248 174 c 0
 238 189 233 207 233 225 c 0
 233 244 239 263 250 276 c 0
 264 292 282 301 300 301 c 0
 317 301 334 292 342 276 c 0
 345 270 346 265 346 260 c 0
 346 248 339 238 331 238 c 0
 326 238 321 242 317 249 c 0
 312 258 308 259 299 253 c 0
 290 248 286 239 286 231 c 0
 286 214 300 195 322 190 c 0
 326 189 329 189 333 189 c 0
 370 189 404 226 404 267 c 0
 404 270 404 272 404 275 c 0
 404 325 345 372 294 372 c 0
 293 372 292 372 292 372 c 0
 263 372 218 354 199 336 c 2
 181 320 l 1
 181 105 l 1
 181 -14 183 -116 183 -122 c 0
 182 -129 174 -142 163 -153 c 0
 151 -165 135 -172 120 -172 c 0
 108 -172 97 -168 87 -161 c 0
EndSplineSet
Validated: 1
EndChar

StartChar: k
Encoding: 107 107 37
Width: 1048
VWidth: 0
Flags: W
HStem: -117 180<431.761 592.894> 167 59<539 568.347> 280 112<541.995 634.502> 562 169<513.936 708.438>
VStem: 66 253<190.258 377.568> 447 92<224.703 274.241> 660 134<124.85 254.256>
LayerCount: 2
Fore
SplineSet
357 -104 m 0
 185 -53 66 81 66 256 c 0
 66 267 66 277 66 287 c 0
 66 348 79 399 111 459 c 0
 196 623 348 730 531 730 c 0
 541 730 550 731 560 731 c 0
 687 731 802 687 899 600 c 0
 927 574 983 502 983 491 c 0
 983 488 978 487 968 487 c 0
 963 487 958 487 951 488 c 0
 924 491 897 500 826 532 c 0
 776 554 729 562 653 562 c 0
 576 562 563 561 534 550 c 0
 426 510 349 430 325 332 c 0
 321 316 319 300 319 283 c 0
 319 200 368 116 442 79 c 0
 464 68 489 63 514 63 c 0
 543 63 571 70 591 83 c 0
 629 108 648 134 656 167 c 0
 659 177 660 184 660 194 c 0
 660 236 635 271 595 280 c 0
 591 281 587 280 583 280 c 0
 560 280 539 265 539 248 c 0
 539 245 539 243 540 241 c 0
 543 233 548 226 553 226 c 0
 565 226 574 217 574 205 c 0
 574 201 572 197 570 192 c 0
 566 184 558 175 554 172 c 0
 548 168 541 167 533 167 c 0
 505 167 468 187 457 213 c 0
 450 229 447 245 447 261 c 0
 447 327 502 391 581 391 c 0
 589 391 597 392 605 392 c 0
 650 392 681 379 718 346 c 0
 770 299 794 251 794 183 c 0
 794 181 794 179 794 176 c 0
 794 73 747 -8 654 -65 c 0
 590 -104 555 -117 477 -117 c 0
 465 -117 456 -117 447 -117 c 0
 412 -117 389 -113 357 -104 c 0
EndSplineSet
Validated: 1
EndChar

StartChar: l
Encoding: 108 108 38
Width: 1024
VWidth: 0
Flags: W
HStem: 85 199<364.473 446.431 773.568 873.789> 330 199<146.358 248.479 568.521 651.479>
VStem: 108 199<372.665 490.642> 301 199<123.358 237.337> 510 199<372.665 490.642> 717 199<127.358 244.336>
LayerCount: 2
Fore
SplineSet
208 529 m 0xec
 263 529 307 484 307 429 c 0xec
 307 412 299 386 289 372 c 1
 364 277 l 1
 374 281 390 284 401 284 c 0
 414 284 435 279 447 273 c 1
 528 372 l 1
 518 386 510 412 510 429 c 0
 510 484 555 529 610 529 c 0
 665 529 709 484 709 429 c 0
 709 412 701 386 691 372 c 1
 773 279 l 1
 785 284 804 289 816 289 c 0
 871 289 916 244 916 189 c 0
 916 134 871 89 816 89 c 0
 761 89 717 134 717 189 c 0
 717 206 725 231 734 245 c 1
 652 339 l 1
 641 334 622 330 610 330 c 0
 598 330 579 334 568 339 c 1
 485 238 l 1
 494 224 500 201 500 185 c 0
 500 130 456 85 401 85 c 0
 346 85 301 130 301 185 c 0xdc
 301 204 311 231 322 246 c 1
 249 339 l 1
 238 334 220 330 208 330 c 0
 153 330 108 374 108 429 c 0
 108 484 153 529 208 529 c 0xec
EndSplineSet
Validated: 1
EndChar

StartChar: m
Encoding: 109 109 39
Width: 1024
VWidth: 0
Flags: W
HStem: -101 174<419.798 580.176> 172 57<526 554.874> 270 217<768.032 903.755> 281 108<528.82 618.703> 552 163<501.68 689.202>
VStem: 71 243<189.553 376.166> 438 88<227.456 275.977> 642 129<131.824 256.886> 727 219<310.195 443.911>
LayerCount: 2
Fore
SplineSet
351 -88 m 0xdf
 186 -39 71 90 71 258 c 0
 71 267 71 275 71 284 c 0
 71 344 84 393 115 453 c 0
 197 611 343 714 518 714 c 0
 527 714 537 715 546 715 c 0
 669 715 779 670 872 586 c 0
 900 562 953 495 953 484 c 0
 953 480 942 479 923 481 c 0
 896 484 871 493 803 523 c 0
 758 544 714 552 648 552 c 0
 644 552 640 552 636 552 c 0
 562 552 549 551 521 540 c 0
 417 502 343 425 320 330 c 0
 316 315 314 297 314 281 c 0
 314 202 361 123 433 88 c 0
 454 78 478 73 502 73 c 0
 530 73 557 79 576 92 c 0
 613 116 631 140 639 172 c 0
 641 181 642 189 642 198 c 0
 642 239 619 273 580 281 c 0
 576 282 572 281 568 281 c 0
 546 281 526 267 526 250 c 0
 526 247 526 245 527 243 c 0
 529 236 535 229 540 229 c 0
 552 229 559 220 559 209 c 0
 559 205 558 200 556 196 c 0
 551 188 545 179 541 177 c 0
 536 173 529 172 521 172 c 0
 494 172 457 192 447 217 c 0
 441 232 438 248 438 263 c 0
 438 326 490 388 567 388 c 0
 574 388 581 389 587 389 c 0
 632 389 662 376 698 345 c 0
 749 300 771 253 771 188 c 0
 771 186 771 184 771 181 c 0
 771 82 726 4 636 -51 c 0
 575 -89 542 -101 467 -101 c 0
 455 -101 447 -101 438 -101 c 0
 404 -101 382 -97 351 -88 c 0xdf
793 275 m 0
 753 291 727 332 727 377 c 0
 727 434 758 472 811 484 c 0
 821 486 830 487 839 487 c 0
 895 487 945 446 945 387 c 0
 945 383 946 378 946 374 c 0
 946 314 907 270 845 270 c 0
 842 270 838 270 835 270 c 0xee80
 818 270 800 272 793 275 c 0
EndSplineSet
Validated: 1
EndChar

StartChar: n
Encoding: 110 110 40
Width: 1024
VWidth: 0
Flags: W
HStem: 120 66<458.59 548.294> 235 62<466.418 507.973> 368 126<383.994 524.618> 368 117<378.442 453.876>
VStem: 399 54<193.137 251.652> 571 91<208.614 322.421>
LayerCount: 2
Fore
SplineSet
464 127 m 0xec
 424 143 399 184 399 223 c 0
 399 241 404 258 416 272 c 0
 430 289 449 297 467 297 c 0
 484 297 500 289 509 273 c 0
 512 267 513 262 513 257 c 0
 513 245 506 235 498 235 c 0
 493 235 488 238 484 246 c 0
 478 255 475 256 466 250 c 0
 457 244 453 236 453 227 c 0
 453 210 467 192 489 187 c 0
 493 186 497 186 501 186 c 0
 538 186 571 223 571 263 c 0
 571 266 571 268 571 271 c 0
 564 329 513 368 446 368 c 0
 444 368 441 368 439 368 c 0
 436 368 434 368 431 368 c 0xec
 393 368 366 383 362 407 c 0
 362 409 362 410 362 412 c 0
 362 437 381 476 399 485 c 0xdc
 410 491 431 494 455 494 c 0
 486 494 521 489 541 480 c 0
 618 445 662 367 662 290 c 0
 662 247 649 205 620 171 c 0
 590 136 558 120 518 120 c 0
 516 120 515 120 514 120 c 0
 495 120 472 123 464 127 c 0xec
EndSplineSet
Validated: 1
EndChar

StartChar: o
Encoding: 111 111 41
Width: 1048
VWidth: 0
Flags: W
HStem: -160 21G<96 116 913 930.5> 536 253<363.921 508.111> 761 20G<913 920>
VStem: 853 128<-64.03 564.244>
LayerCount: 2
Fore
SplineSet
885 -165 m 1xb0
 853 -143 853 -137 853 229 c 2
 853 570 l 1
 742 458 l 2
 681 396 522 235 388 98 c 0
 172 -121 133 -160 99 -160 c 0
 93 -160 87 -159 80 -157 c 0
 70 -155 57 -144 51 -133 c 0
 45 -122 42 -116 42 -107 c 0
 42 -101 44 -95 46 -85 c 0
 53 -62 94 -17 365 259 c 0
 832 735 852 755 886 771 c 0
 901 778 909 782 917 782 c 0
 923 782 929 780 938 776 c 0
 982 757 981 782 981 304 c 0
 981 235 981 176 981 125 c 0
 981 -61 980 -133 975 -142 c 0
 964 -164 942 -176 919 -176 c 0
 907 -176 895 -172 885 -165 c 1xb0
392 543 m 0
 347 557 310 614 310 663 c 0
 310 668 310 673 311 678 c 0
 320 734 352 771 406 785 c 0
 417 788 428 789 439 789 c 0
 507 789 563 732 563 663 c 0
 563 651 561 638 558 626 c 0
 543 571 492 536 435 536 c 0xd0
 421 536 406 538 392 543 c 0
EndSplineSet
Validated: 33
EndChar

StartChar: q
Encoding: 113 113 42
Width: 1048
VWidth: 0
Flags: W
HStem: -174 963<381 667>
VStem: 43 963<164 450>
LayerCount: 2
Fore
SplineSet
524 788 m 0
 790 788 1006 573 1006 307 c 0
 1006 41 790 -174 524 -174 c 0
 258 -174 43 41 43 307 c 0
 43 573 258 788 524 788 c 0
EndSplineSet
Validated: 1
EndChar

StartChar: r
Encoding: 114 114 43
Width: 1048
VWidth: 0
Flags: W
HStem: -174 123<413 638> 231 157<185 869> 655 133<415 636>
VStem: 43 963<234 380>
LayerCount: 2
Fore
SplineSet
0 307 m 0
 0 573 216 788 481 788 c 0
 747 788 963 573 963 307 c 0
 963 307 963 307 963 307 c 0
 963 41 747 -174 481 -174 c 0
 481 -174 481 -174 481 -174 c 0
 216 -174 -0 41 -0 307 c 0
 -0 307 -0 307 0 307 c 0
133 310 m 0
 133 157 253 4 401 -33 c 1
 401 652 l 1
 253 615 133 462 133 310 c 0
558 -36 m 1
 713 -4 840 151 840 310 c 0
 840 468 713 623 558 655 c 1
 558 -36 l 1
EndSplineSet
Validated: 5
EndChar

StartChar: s
Encoding: 115 115 44
Width: 665
VWidth: 0
Flags: W
HStem: -171 21G<598.5 615> 27 82<190.473 377.082> 270 96<80.1528 485.912> 526 76<184.65 378.912> 765 20G<598 604>
VStem: 0 79<215.042 267.822> 537 129<-152.646 168 461 604.118>
LayerCount: 2
Fore
SplineSet
570 -162 m 0
 542 -142 534 -130 534 22 c 1
 534 168 l 1
 510 137 l 2
 497 120 469 94 447 79 c 0
 395 44 339 27 284 27 c 0
 213 27 142 56 85 113 c 0
 27 171 0 243 0 314 c 0
 0 435 79 553 215 591 c 0
 242 598 264 602 286 602 c 0
 305 602 324 599 348 593 c 0
 411 577 451 553 496 505 c 2
 537 461 l 1
 537 601 l 2
 537 757 538 765 579 782 c 0
 589 786 595 785 601 785 c 0
 607 785 613 786 623 782 c 0
 664.088888889 763.844444444 665.001975309 784.038518519 665.001975309 368.812115226 c 0
 665.001975309 349.499259259 665 329.244444444 665 308 c 0
 665 228 666 161 666 105 c 0
 666 -63 663 -130 659 -138 c 0
 649 -158 626 -171 604 -171 c 0
 593 -171 578 -167 570 -162 c 0
361 123 m 0
 404 140 452 184 471 227 c 0
 479 244 486 260 486 264 c 0
 486 268 365 270 255 270 c 0
 165 270 82 269 80 265 c 0
 80 264 79 263 79 262 c 0
 79 248 109 197 132 173 c 0
 145 159 173 139 194 129 c 0
 221 116 252 109 283 109 c 0
 309 109 336 114 361 123 c 0
486 374 m 0
 486 379 476 399 464 421 c 0
 440 465 396 502 349 517 c 0
 331 523 309 526 287 526 c 0
 251 526 213 519 187 505 c 0
 147 484 100 433 87 395 c 2
 77 366 l 1
 281 366 l 2
 441 366 486 368 486 374 c 0
EndSplineSet
Validated: 1
EndChar

StartChar: t
Encoding: 116 116 45
Width: 1048
VWidth: 0
Flags: W
HStem: -174 123<391.58 633.359> 62 119<442.888 583.843> 436 116<442.888 583.843> 655 133<391.58 633.359>
VStem: 30 130<183.641 419.564> 266 119<238.668 379.843> 640 116<238.668 379.843> 867 125<183.641 419.564>
LayerCount: 2
Fore
SplineSet
481 552 m 0
 481 552 481 552 481 552 c 0
 617 552 727 442 727 307 c 0
 727 172 617 62 481 62 c 0
 481 62 481 62 481 62 c 0
 346 62 236 172 236 307 c 0
 236 442 346 552 481 552 c 0
483 436 m 0
 413 436 356 379 356 309 c 0
 356 309 356 309 356 309 c 0
 356 238 413 181 483 181 c 0
 483 181 483 181 483 181 c 0
 483 181 483 181 483 181 c 0
 554 181 611 238 611 309 c 0
 611 309 611 309 611 309 c 0
 611 379 554 436 483 436 c 0
 483 436 483 436 483 436 c 0
481 788 m 0
 747 788 963 573 963 307 c 0
 963 307 963 307 963 307 c 0
 963 41 747 -174 481 -174 c 0
 481 -174 481 -174 481 -174 c 0
 216 -174 -0 41 -0 307 c 0
 -0 307 -0 307 0 307 c 0
 0 573 216 788 481 788 c 0
484 655 m 0
 289 655 131 497 131 302 c 0
 131 107 289 -51 484 -51 c 0
 679 -51 837 107 837 302 c 0
 837 497 679 655 484 655 c 0
 484 655 484 655 484 655 c 0
EndSplineSet
Validated: 5
EndChar

StartChar: u
Encoding: 117 117 46
Width: 1048
VWidth: 0
Flags: W
HStem: -174 123<413 638> 231 157<185 869> 655 133<415 636>
VStem: 43 963<234 380>
LayerCount: 2
Fore
SplineSet
481 788 m 0
 747 788 963 573 963 307 c 0
 963 307 963 307 963 307 c 0
 963 41 747 -174 481 -174 c 0
 481 -174 481 -174 481 -174 c 0
 216 -174 -0 41 -0 307 c 0
 -0 307 -0 307 0 307 c 0
 0 573 216 788 481 788 c 0
484 655 m 0
 332 655 178 535 142 387 c 1
 826 387 l 1
 789 535 636 655 484 655 c 0
138 231 m 1
 170 76 325 -51 484 -51 c 0
 643 -51 798 76 830 231 c 1
 138 231 l 1
EndSplineSet
Validated: 5
EndChar

StartChar: v
Encoding: 118 118 47
Width: 1048
VWidth: 0
Flags: W
HStem: 565 20G<491 561>
LayerCount: 2
Fore
SplineSet
132 333 m 0
 148 333 164 323 195 300 c 0
 205 292 215 285 226 278 c 0
 297 218 431 170 524 170 c 0
 628 170 773 229 848 302 c 1
 876 323 897 333 916 333 c 0
 931 333 944 327 958 317 c 0
 978 302 996 268 996 244 c 0
 996 241 996 238 995 235 c 0
 988 207 896 137 816 97 c 0
 727 53 614 28 509 28 c 0
 467 28 427 32 390 40 c 0
 223 76 67 170 54 241 c 0
 53 245 53 249 53 254 c 0
 53 282 70 310 99 324 c 0
 112 330 122 333 132 333 c 0
526 586 m 0
 596 586 652 530 652 460 c 0
 652 390 596 333 526 333 c 0
 456 333 400 390 400 460 c 0
 400 530 456 586 526 586 c 0
EndSplineSet
Validated: 1
EndChar

StartChar: w
Encoding: 119 119 48
Width: 665
VWidth: 0
Flags: W
HStem: -171 21G<597 614> 21 78<188.62 381.617> 238 152<234.596 334.253> 518 84<185.889 382.396> 765 20G<597 603.5>
VStem: 0 74<211.635 403.357> 210 149<260.837 365.802> 494 171<212.638 391.864> 537 129<-152.016 162 460 604.095>
LayerCount: 2
Fore
SplineSet
570 -161 m 0xfe80
 541 -141 537 -118 537 27 c 2
 537 162 l 1
 512 131 l 2
 479 89 424 54 365 35 c 0
 334 26 312 21 290 21 c 0
 271 21 252 25 228 31 c 0
 172 45 130 68 89 108 c 0
 28 166 0 239 0 311 c 0
 0 444 93 572 247 598 c 0
 265 601 278 602 291 602 c 0
 305 602 317 601 334 597 c 0
 411 582 479 541 518 486 c 2
 537 460 l 1
 537 600 l 2xfe80
 537 756 538 764 579 782 c 0
 588 785 594 785 600 785 c 0
 607 785 613 783 623 779 c 0
 664.088888889 761.8 665.001975309 783.862716049 665.001975309 368.800526749 c 0
 665.001975309 349.495308642 665 329.244444444 665 308 c 0xff
 665 228 666 161 666 105 c 0
 666 -63 663 -130 659 -138 c 0
 648 -159 625 -171 603 -171 c 0
 591 -171 580 -168 570 -161 c 0xfe80
371 116 m 0
 418 138 451 170 474 217 c 0
 492 253 494 265 494 308 c 0xff
 494 352 492 364 474 400 c 0
 451 446 418 479 371 502 c 0
 350 512 317 518 284 518 c 0
 251 518 218 512 197 502 c 0
 149 478 117 446 94 400 c 0
 76 364 74 352 74 309 c 0
 74 215 127 140 217 108 c 0
 234 102 256 99 279 99 c 0
 313 99 348 105 371 116 c 0
232 260 m 0
 214 278 210 286 210 308 c 0
 210 344 227 370 258 382 c 0
 269 387 276 390 283 390 c 0
 291 390 298 387 311 382 c 0
 342 370 359 343 359 314 c 0
 359 295 352 276 336 260 c 0
 317 241 310 238 284 238 c 0
 258 238 251 241 232 260 c 0
EndSplineSet
Validated: 1
EndChar

StartChar: x
Encoding: 120 120 49
Width: 310
VWidth: 0
Flags: W
HStem: 465 257<77.7547 224.999>
VStem: 23 258<521.56 667.563>
LayerCount: 2
Fore
SplineSet
97 475 m 0
 48 499 23 549 23 598 c 0
 23 642 44 685 86 706 c 0
 107 717 129 722 151 722 c 0
 201 722 248 695 271 648 c 0
 278 634 281 617 281 599 c 0
 281 562 267 521 242 499 c 0
 218 477 181 465 146 465 c 0
 128 465 111 468 97 475 c 0
EndSplineSet
Validated: 1
EndChar

StartChar: y
Encoding: 121 121 50
Width: 1048
VWidth: 0
Flags: W
HStem: -174 123<405 646> 655 133<405 646>
VStem: 43 131<184 420> 880 125<184 420>
LayerCount: 2
Fore
SplineSet
481 788 m 0
 747 788 963 573 963 307 c 0
 963 307 963 307 963 307 c 0
 963 41 747 -174 481 -174 c 0
 481 -174 481 -174 481 -174 c 0
 216 -174 -0 41 -0 307 c 0
 -0 307 -0 307 0 307 c 0
 0 573 216 788 481 788 c 0
 481 788 481 788 481 788 c 0
484 655 m 0
 289 655 131 497 131 302 c 0
 131 107 289 -51 484 -51 c 0
 679 -51 837 107 837 302 c 0
 837 497 679 655 484 655 c 0
 484 655 484 655 484 655 c 0
485 437 m 0
 485 437 485 437 485 437 c 0
 555 437 612 380 612 311 c 0
 612 311 612 311 612 311 c 0
 612 241 555 184 485 184 c 0
 485 184 485 184 485 184 c 0
 416 184 359 241 359 311 c 0
 359 311 359 311 359 311 c 0
 359 380 416 437 485 437 c 0
EndSplineSet
Validated: 5
EndChar

StartChar: z
Encoding: 122 122 51
Width: 1024
VWidth: 0
Flags: W
HStem: -174 566<368.835 647.081> 655 133<403.203 625.229>
VStem: 31 962<164.851 384.734>
LayerCount: 2
Fore
SplineSet
512 788 m 0
 530 788 559 782 577 782 c 0
 599 782 614 779 636 772 c 0
 782 733 934 583 975 437 c 0
 983 412 988 396 988 372 c 0
 988 354 993 325 993 307 c 0
 993 288 991 257 988 237 c 0
 986 221 984 209 979 193 c 0
 930 -9 720 -174 512 -174 c 0
 246 -174 31 41 31 307 c 0
 31 515 195 724 397 774 c 0
 414 779 427 782 445 782 c 0
 463 782 493 788 512 788 c 0
515 655 m 0
 364 655 211 537 173 392 c 1
 507 392 l 1
 851 392 l 1
 848 406 l 2
 838 450 801 511 761 555 c 0
 704 610 594 655 515 655 c 0
EndSplineSet
Validated: 1
EndChar

StartChar: P
Encoding: 80 80 52
Width: 1048
VWidth: 0
Flags: W
HStem: -171 21G<925 942.5> 92 120<65.9567 373.662> 99 130<188.723 866> 348 254<440.921 584.873> 766 20G<927.5 934>
VStem: 866 128<-152.349 99 229 662.413>
LayerCount: 2
Fore
SplineSet
469 355 m 0x9c
 424 369 387 426 387 475 c 0
 387 481 387 486 388 491 c 0
 397 547 429 584 483 598 c 0
 494 601 505 602 515 602 c 0
 584 602 640 545 640 475 c 0
 640 463 638 451 635 439 c 0
 620 384 569 348 512 348 c 0
 498 348 483 350 469 355 c 0x9c
898 -161 m 0
 871 -142 866 -116 866 -4 c 2
 866 99 l 1
 485 99 l 1xbc
 367 99 284 92 224 92 c 0
 72 92 72 99 60 126 c 0
 56 136 54 146 54 155 c 0
 54 180 67 203 89 212 c 0xdc
 101 217 227 229 485 229 c 1
 866 229 l 1xbc
 866 488 l 1
 866 773 868 765 909 782 c 0
 918 786 924 786 931 786 c 0
 937 786 943 786 952 782 c 0
 993.088888889 764.8 994.001975309 784.12345679 994.001975309 369.690282579 c 0
 994.001975309 350.414320988 994 330.2 994 309 c 0
 994 240 994 181 994 130 c 0
 994 -56 993 -129 988 -137 c 0
 977 -159 954 -171 931 -171 c 0
 919 -171 908 -168 898 -161 c 0
EndSplineSet
Validated: 1
EndChar

StartChar: p
Encoding: 112 112 53
Width: 1048
VWidth: 0
Flags: W
HStem: 95 129<189 862>
VStem: 866 129<237 604>
LayerCount: 2
Fore
SplineSet
469 355 m 0
 424 369 387 426 387 475 c 0
 387 481 387 486 388 491 c 0
 397 547 429 584 483 598 c 0
 494 601 505 602 515 602 c 0
 584 602 640 545 640 475 c 0
 640 463 638 451 635 439 c 0
 620 384 569 348 512 348 c 0
 498 348 483 350 469 355 c 0
898 -161 m 0
 871 -142 866 -116 866 -4 c 2
 866 99 l 1
 485 99 l 1
 367 99 284 92 224 92 c 0
 72 92 72 99 60 126 c 0
 56 136 54 146 54 155 c 0
 54 180 67 203 89 212 c 0
 101 217 227 229 485 229 c 1
 866 229 l 1
 866 488 l 1
 866 773 868 765 909 782 c 0
 918 786 924 786 931 786 c 0
 937 786 943 786 952 782 c 0
 993.088888889 764.8 994.001975309 784.12345679 994.001975309 369.690282579 c 0
 994.001975309 350.414320988 994 330.2 994 309 c 0
 994 240 994 181 994 130 c 0
 994 -56 993 -129 988 -137 c 0
 977 -159 954 -171 931 -171 c 0
 919 -171 908 -168 898 -161 c 0
EndSplineSet
Validated: 1
EndChar

StartChar: period
Encoding: 46 46 54
Width: 1024
VWidth: 0
HStem: -131 170<454.826 569.174>
VStem: 427 170<-103.174 11.1742>
LayerCount: 2
Fore
SplineSet
427 -46 m 0
 427 1 465 39 512 39 c 0
 559 39 597 1 597 -46 c 0
 597 -93 559 -131 512 -131 c 0
 465 -131 427 -93 427 -46 c 0
EndSplineSet
Validated: 1
EndChar

StartChar: one
Encoding: 49 49 55
Width: 352
VWidth: 0
Flags: W
HStem: -171 21G<170 192>
VStem: 94 167<-25.7685 738.366>
LayerCount: 2
Fore
SplineSet
135 -160 m 0
 95 -136 94 -151 94 247 c 0
 94 266 94 286 94 307 c 0
 94 341 94 373 94 402 c 0
 94 775 96 759 143 782 c 0
 157 789 165 791 174 791 c 0
 180 791 187 789 195 787 c 0
 223 780 244 761 254 734 c 0
 259 722 261 582 261 308 c 0
 261 -75 260 -101 249 -125 c 0
 235 -155 207 -171 177 -171 c 4
 163 -171 148 -168 135 -160 c 0
EndSplineSet
Validated: 1
EndChar

StartChar: plus
Encoding: 43 43 56
Width: 1024
VWidth: 0
HStem: -175 124<318 711.936>
LayerCount: 2
Fore
SplineSet
176 -171 m 0
 159 -164 137 -135 137 -116 c 0
 137 -105 169 -44 216 39 c 0
 411 378 454 450 466 461 c 0
 475 470 494 474 513 474 c 0
 531 474 550 470 559 462 c 0
 566 456 643 328 729 178 c 0
 850 -31 887 -96 887 -127 c 0
 887 -140 880 -148 871 -157 c 0
 862 -166 851 -171 847 -171 c 0
 800 -171 676 -175 547 -175 c 0
 369 -175 181 -173 176 -171 c 0
712 -46 m 0
 700 -17 518 292 513 292 c 0
 506 290 323 -23 318 -40 c 0
 318 -41 318 -41 318 -42 c 0
 318 -51 341 -51 515 -51 c 0
 624 -51 712 -49 712 -46 c 0
EndSplineSet
Validated: 1
EndChar

StartChar: slash
Encoding: 47 47 57
Width: 1024
VWidth: 0
HStem: -117 253<437.295 579.117> 246 134<74 880.34> 478 253<437.295 579.117>
VStem: 381 253<-59.3237 80.1895 536.026 675.189>
LayerCount: 2
Fore
SplineSet
463 -110 m 0
 419 -96 381 -40 381 10 c 0
 381 15 380 20 381 25 c 0
 390 81 424 117 478 132 c 0
 489 135 500 136 510 136 c 0
 578 136 634 79 634 10 c 0
 634 -2 632 -15 629 -27 c 0
 614 -82 564 -117 507 -117 c 0
 492 -117 478 -115 463 -110 c 0
54 262 m 1
 38 276 30 294 30 312 c 0
 30 322 32 332 37 341 c 0
 54 374 46 380 290 380 c 0
 351 380 426 377 521 377 c 2
 957 377 l 1
 976 356 l 2
 988 343 995 328 995 312 c 0
 995 302 992 292 987 281 c 0
 971 247 980 246 580 246 c 0
 557 246 534 246 509 246 c 2
 74 246 l 1
 54 262 l 1
463 485 m 0
 419 500 381 555 381 605 c 0
 381 610 380 615 381 620 c 0
 390 676 424 712 478 727 c 0
 489 730 500 731 510 731 c 0
 578 731 634 674 634 605 c 0
 634 593 632 580 629 568 c 0
 614 513 564 478 507 478 c 0
 492 478 478 480 463 485 c 0
EndSplineSet
Validated: 1
EndChar

StartChar: equal
Encoding: 61 61 58
Width: 1024
VWidth: 0
HStem: 68 133<73 950> 412 134<185.656 972.733>
LayerCount: 2
Fore
SplineSet
64 77 m 0
 42 89 30 111 30 134 c 0
 30 152 38 171 54 185 c 2
 73 201 l 1
 512 201 l 1
 950 201 l 1
 972 179 l 2
 987 164 995 149 995 134 c 0
 995 120 988 105 975 91 c 2
 956 68 l 1
 519 68 l 1
 416 68 337 68 275 68 c 0
 111 68 75 70 64 77 c 0
54 428 m 1
 44 437 33 452 31 461 c 0
 30 465 30 469 30 474 c 0
 30 495 41 520 58 532 c 0
 74 543 100 545 488 545 c 0
 568 545 645 546 712 546 c 0
 833 546 919 545 929 543 c 0
 965 538 994 511 994 483 c 0
 994 458 979 428 962 419 c 0
 954 415 800 412 512 412 c 2
 73 412 l 1
 54 428 l 1
EndSplineSet
Validated: 1
EndChar

StartChar: hyphen
Encoding: 45 45 59
Width: 1024
VWidth: 0
HStem: -166 21G<508.5 524> 363 122<317.036 708.889>
VStem: 139 178<350.5 441.5>
LayerCount: 2
Fore
SplineSet
477 -157 m 0
 459 -147 432 -103 297 130 c 0
 176 340 139 404 139 435 c 0
 139 448 146 456 156 466 c 2
 175 485 l 1
 512 485 l 1
 849 485 l 1
 867 466 l 2
 878 456 885 448 885 434 c 0
 885 403 848 338 730 133 c 0
 644 -16 568 -143 561 -150 c 0
 551 -160 533 -166 515 -166 c 0
 502 -166 488 -163 477 -157 c 0
615 186 m 0
 667 276 709 352 709 359 c 0
 708 361 619 363 511 363 c 0
 366 363 317 361 317 356 c 0
 317 345 509 15 515 15 c 0
 516 17 562 94 615 186 c 0
EndSplineSet
Validated: 5
EndChar

StartChar: asterisk
Encoding: 42 42 60
Width: 1024
VWidth: 0
HStem: -175 21G<331.5 350 676 691> 68 135<49.3226 268 408.001 616 754 950> 411 137<50.0449 268 408 613 754 972.564> 769 20G<338.5 350.5 672.5 686.5>
VStem: 271 137<-154.252 68 204.993 411 549 770.062> 616 136<-131 68 203 411 548 769.289>
LayerCount: 2
Fore
SplineSet
301 -162 m 0
 277 -143 271 -113 271 -17 c 2
 271 68 l 1
 178 68 l 2
 73 68 54 74 37 108 c 0
 32 118 30 128 30 137 c 0
 30 156 38 173 54 186 c 0
 73 202 75 203 172 203 c 2
 268 203 l 1
 268 307 l 1
 268 411 l 1
 167 411 l 1
 73 411 66 418 51 432 c 0
 37 445 30 460 30 477 c 0
 30 484 31 492 34 500 c 0
 47 539 64 549 173 549 c 1
 271 549 l 1
 271 646 l 1
 271 755 280 772 319 785 c 0
 327 788 335 789 342 789 c 0
 359 789 374 783 387 769 c 0
 401 754 405 746 405 652 c 1
 405 548 l 1
 512 548 l 1
 616 548 l 1
 616 647 l 2
 616 744 617 746 633 765 c 0
 646 781 663 789 682 789 c 0
 691 789 701 787 711 782 c 0
 745 765 751 746 751 641 c 2
 751 548 l 1
 836 548 l 2
 882 548 931 545 944 542 c 0
 973 534 994 508 994 482 c 0
 994 456 973 422 954 417 c 0
 946 415 898 411 847 411 c 1
 754 411 l 1
 754 307 l 1
 754 203 l 1
 850 203 l 1
 950 203 l 1
 972 181 l 2
 987 166 995 151 995 135 c 0
 995 121 988 106 975 92 c 2
 957 71 l 1
 854 71 l 1
 752 71 l 1
 752 -35 l 1
 752 -138 l 1
 727 -156 l 2
 713 -169 698 -175 684 -175 c 0
 668 -175 653 -168 638 -153 c 2
 616 -131 l 1
 616 -31 l 1
 616 68 l 1
 512 68 l 1
 408 68 l 1
 408 -28 l 1
 408 -79 404 -127 402 -135 c 0
 397 -154 363 -175 337 -175 c 0
 326 -175 310 -169 301 -162 c 0
613 307 m 1
 613 411 l 1
 511 411 l 1
 408 411 l 1
 408 315 l 2
 408 293 406 272 406 255 c 0
 406 230 407 213 408 211 c 0
 410 205 436 203 514 203 c 2
 616 203 l 1
 613 307 l 1
EndSplineSet
Validated: 1
EndChar

StartChar: comma
Encoding: 44 44 61
Width: 1024
VWidth: 0
HStem: -197.305 318.305<494.854 524.958>
VStem: 427 170<-17.5938 93.1742>
LayerCount: 2
Fore
SplineSet
512 121 m 0
 559 121 597 83 597 36 c 0
 597 33 597 29 596 27 c 0
 596 24 596 22 595 19 c 0
 594 13 590 2 587 -4 c 2
 524 -178 l 2
 520.410533616 -189.665765749 507.963132345 -197.30519746 495.329230601 -197.30519746 c 0
 493.884268925 -197.30519746 492.436867655 -197.205266808 491 -197 c 2
 467 -192 l 2
 456.470323385 -189.570074627 449.877004981 -181.235611938 449.877004981 -170.716356201 c 0
 449.877004981 -168.248477615 450.239900497 -165.660348261 451 -163 c 2
 493 -47 l 1
 457 -39 427 -1 427 36 c 0
 427 83 465 121 512 121 c 0
EndSplineSet
EndChar

StartChar: parenleft
Encoding: 40 40 62
Width: 394
VWidth: 0
Flags: W
VStem: 66 92<140.973 449.456>
LayerCount: 2
Fore
SplineSet
267 802 m 0
 274.318359375 810.885742188 285.1875 815.400390625 296.752929688 815.400390625 c 0
 307.313476562 815.400390625 318.454101562 811.63671875 328 804 c 0
 340.104492188 793.168945312 346.93359375 778.685546875 346.93359375 765.461914062 c 0
 346.93359375 757.9296875 344.717773438 750.806640625 340 745 c 0
 290 681 247 614 215 542 c 0
 198 505 184 466 174 427 c 1
 165 390 158 352 158 313 c 0
 158 275 159 237 166 199 c 0
 173 160 185 121 201 83 c 2
 218 42 239 2 264 -35 c 0
 285 -68 309 -99 334 -129 c 0
 339.633789062 -135.438476562 342.352539062 -143.495117188 342.352539062 -151.93359375 c 0
 342.352539062 -164.466796875 336.354492188 -177.840820312 325 -188 c 0
 315.220703125 -196.75 303.057617188 -201.260742188 291.645507812 -201.260742188 c 0
 280.885742188 -201.260742188 270.793945312 -197.25 264 -189 c 0
 236 -156 210 -122 187 -86 c 0
 159 -44 135 1 115 48 c 2
 98 91 84 136 75 182 c 0
 67 227 66 272 66 317 c 0
 66 362 74 406 85 450 c 0
 96 495 112 538 131 580 c 0
 167 660 214 734 267 802 c 0
EndSplineSet
EndChar

StartChar: parenright
Encoding: 41 41 63
Width: 394
VWidth: 0
Flags: W
VStem: 228 92<164.544 472.527>
LayerCount: 2
Fore
SplineSet
52 743 m 0
 46.3662109375 749.438476562 43.6474609375 757.495117188 43.6474609375 765.93359375 c 0
 43.6474609375 778.466796875 49.6455078125 791.840820312 61 802 c 0
 70.779296875 810.75 82.9423828125 815.260742188 94.3544921875 815.260742188 c 0
 105.114257812 815.260742188 115.206054688 811.25 122 803 c 0
 150 770 176 736 199 700 c 0
 227 658 251 613 271 566 c 2
 288 523 302 478 311 432 c 0
 319 387 320 342 320 297 c 0
 320 252 312 208 301 164 c 0
 290 119 274 76 255 34 c 0
 219 -46 172 -120 119 -188 c 0
 111.681640625 -196.885742188 100.8125 -201.400390625 89.2470703125 -201.400390625 c 0
 78.6865234375 -201.400390625 67.5458984375 -197.63671875 58 -190 c 0
 45.8955078125 -179.168945312 39.06640625 -164.685546875 39.06640625 -151.461914062 c 0
 39.06640625 -143.9296875 41.2822265625 -136.806640625 46 -131 c 0
 96 -67 139 0 171 72 c 0
 188 109 202 148 212 187 c 0
 221 224 228 262 228 301 c 0
 228 339 227 377 220 415 c 0
 213 454 201 491 185 529 c 0
 168 570 147 612 122 649 c 0
 101 682 77 713 52 743 c 0
EndSplineSet
EndChar

StartChar: less
Encoding: 60 60 64
Width: 564
VWidth: 0
Flags: W
HStem: 31 21G<323.5 330.5 486.5 494>
LayerCount: 2
Fore
SplineSet
327 583 m 0
 335 583 342 580 348 574 c 0
 354 568 357 560 357 553 c 0
 357 545 354 538 348 532 c 2
 124 307 l 1
 348 82 l 2
 354 76 357 69 357 61 c 0
 357 54 354 46 348 40 c 0
 342 34 334 31 327 31 c 0
 320 31 312 34 306 40 c 2
 60 286 l 2
 54 292 51 300 51 307 c 0
 51 314 54 322 60 328 c 0
 61 329 61 329 61 329 c 0
 306 574 l 2
 312 580 319 583 327 583 c 0
491 583 m 0
 498 583 506 580 512 574 c 0
 518 568 521 560 521 553 c 0
 521 545 518 538 512 532 c 2
 287 307 l 1
 512 82 l 2
 518 76 521 69 521 61 c 0
 521 54 518 46 512 40 c 0
 506 34 498 31 490 31 c 0
 483 31 475 34 469 40 c 2
 224 286 l 2
 218 292 215 300 215 307 c 0
 215 314 218 322 224 328 c 0
 224 329 224 329 225 329 c 0
 470 574 l 2
 475 580 483 583 491 583 c 0
EndSplineSet
Validated: 5
EndChar

StartChar: greater
Encoding: 62 62 65
Width: 563
VWidth: 0
Flags: W
HStem: 31 21G<73.5 81 237 245>
LayerCount: 2
Fore
SplineSet
241 31 m 0
 233 31 226 34 220 40 c 0
 214 46 211 54 211 61 c 0
 211 69 214 76 220 82 c 2
 444 307 l 1
 220 532 l 2
 214 538 211 545 211 553 c 0
 211 560 214 568 220 574 c 0
 226 580 234 583 241 583 c 0
 248 583 256 580 262 574 c 2
 508 328 l 2
 514 322 517 314 517 307 c 0
 517 300 514 292 508 286 c 0
 507 285 507 285 507 285 c 0
 262 40 l 2
 256 34 249 31 241 31 c 0
77 31 m 0
 70 31 62 34 56 40 c 0
 50 46 47 54 47 61 c 0
 47 69 50 76 56 82 c 2
 281 307 l 1
 56 532 l 2
 50 538 47 545 47 553 c 0
 47 560 50 568 56 574 c 0
 62 580 70 583 78 583 c 0
 85 583 93 580 99 574 c 2
 344 328 l 2
 350 322 353 314 353 307 c 0
 353 300 350 292 344 286 c 0
 344 285 344 285 343 285 c 0
 98 40 l 2
 93 34 85 31 77 31 c 0
EndSplineSet
Validated: 5
EndChar

StartChar: underscore
Encoding: 95 95 66
Width: 1024
VWidth: 0
Flags: W
HStem: 262 90<69.2715 954.84>
LayerCount: 2
Fore
SplineSet
91 352 m 1
 936 352 l 1
 949 346 959 328 959 307 c 0
 959 286 950 268 937 262 c 1
 85 262 l 1
 73 269 65 286 65 306 c 0
 65 329 76 348 91 352 c 1
EndSplineSet
EndChar

StartChar: zero
Encoding: 48 48 67
Width: 750
VWidth: 0
Flags: W
HStem: -173 21G<120 141 606.5 624.5> 766 20G<125.5 140 605 629.5>
VStem: 293 166<267.127 347.846>
LayerCount: 2
Fore
SplineSet
91 -153 m 0
 76 -138 69 -123 69 -107 c 0
 69 -95 73 -82 81 -66 c 0
 87 -53 138 35 193 130 c 0
 248 224 293 304 293 308 c 0
 293 311 243 398 183 502 c 0
 123 607 71 701 71 712 c 0
 71 715 70 718 70 721 c 0
 70 744 83 773 100 782 c 0
 109 786 120 786 131 786 c 0
 149 786 168 781 178 772 c 0
 187 764 234 688 283 602 c 0
 345 494 371 454 379 454 c 0
 379 454 380 455 380 455 c 0
 383 460 424 528 469 607 c 0
 514 686 559 759 569 769 c 0
 581 782 597 787 613 787 c 0
 646 787 679 761 679 723 c 0
 679 704 659 664 574 517 c 0
 517 417 466 329 461 322 c 0
 460 320 459 318 459 315 c 0
 459 300 479 262 565 114 c 0
 651 -34 679 -85 679 -115 c 0
 679 -127 674 -136 666 -146 c 0
 653 -164 634 -173 615 -173 c 0
 598 -173 581 -166 567 -152 c 0
 559 -144 513 -69 465 14 c 0
 418 97 377 165 375 165 c 0
 373 165 332 98 285 17 c 0
 238 -65 193 -140 184 -150 c 0
 173 -163 159 -170 141 -173 c 0
 135 -174 131 -173 127 -173 c 0
 113 -173 107 -168 91 -153 c 0
EndSplineSet
Validated: 1
EndChar
